<!DOCTYPE svg>
<svg width="400" height="800" xmlns="http://www.w3.org/2000/svg" xmlns:xlink="http://www.w3.org/1999/xlink">
	<rect x="0" y="0" width="400" height="800" fill="#fff" stroke="#000" stroke-width="5"/>
	<text x="25" y="75" font-family="sans-serif" font-size="50" fill="#000">Interests</text>
	<rect x="25" y="100" width="350" height="40" fill="#fff" stroke="#ccc" stroke-width="1"/>
	<text x="35" y="130" font-family="sans-serif" font-size="25" fill="#888">Anders Breivik</text>
	<rect x="25" y="140" width="350" height="65" fill="#faa" stroke="#000" stroke-width="1"/>
	<text x="35" y="175" font-family="sans-serif" font-size="25" fill="#000">Anders Behring Breivik</text>" stroke="#000" stroke-width="1"/>
	<text x="35" y="195" font-family="sans-serif" font-size="10" fill="#555">Norwegian far-right terrorist and mass murderer</text>
	<circle cx="330" cy="170" r="20" fill="#f00"/>
	<line x1="320" y1="160" x2="340" y2="180" r="20" stroke="#fff" stroke-width="4"/>
	<line x1="320" y1="180" x2="340" y2="160" r="20" stroke="#fff" stroke-width="4"/>
	<rect x="25" y="205" width="350" height="65" fill="#fff" stroke="#000" stroke-width="1"/>
	<text x="35" y="240" font-family="sans-serif" font-size="25" fill="#000">Anders Breivik, the public, and psychiatry</text>" stroke="#000" stroke-width="1"/>
	<text x="35" y="260" font-family="sans-serif" font-size="10" fill="#555">scientific article published on 26 April 2012</text>
	<rect x="25" y="270" width="350" height="65" fill="#fff" stroke="#000" stroke-width="1"/>
	<text x="35" y="305" font-family="sans-serif" font-size="25" fill="#000">Anders Breivik: Extreme Beliefs Mistaken for Psychosis</text>" stroke="#000" stroke-width="1"/>
	<text x="35" y="325" font-family="sans-serif" font-size="10" fill="#555">scientific article published on March 2016</text>
	<rect x="25" y="335" width="350" height="65" fill="#fff" stroke="#000" stroke-width="1"/>
	<text x="35" y="370" font-family="sans-serif" font-size="25" fill="#000">trial of Anders Behring Breivik</text>" stroke="#000" stroke-width="1"/>
	<text x="35" y="390" font-family="sans-serif" font-size="10" fill="#555">2012 trial of the perpetrator of the 2011 Norway attacks</text>
	<rect x="50" y="300" width="300" height="200" fill="#faa" stroke="#000" stroke-width="2"/>
	<text x="200" y="355" font-size="50" text-anchor="middle" font-family="sans-serif" fill="#000">This item is</text>
	<text x="200" y="415" font-size="50" text-anchor="middle" font-family="sans-serif" fill="#000">banned by</text>
	<text x="200" y="475" font-size="50" text-anchor="middle" font-family="sans-serif" fill="#000">Tengdu.</text>
</svg>